<?xml version='1.0' encoding='UTF-8'?><!DOCTYPE svg PUBLIC "-//W3C//DTD SVG 1.1//EN" "http://www.w3.org/Graphics/SVG/1.1/DTD/svg11.dtd"><svg xmlns:xlink="http://www.w3.org/1999/xlink" xmlns="http://www.w3.org/2000/svg" version="1.1" x="0" y="0" width="24px" height="643px" viewBox="0 0 24 643" preserveAspectRatio="none"><g transform="translate(0,129)"><defs>
  </defs>
  <polygon points="6,10.5 12.5,17 14,15.5 9,10.5 14,5.5 12.5,4 "/>
  <rect opacity="0" fill="#4387FD" width="21" height="21"/>
</g><g transform="translate(0,562)"><defs>
  </defs>
  <polygon points="6,10.5 12.5,17 14,15.5 9,10.5 14,5.5 12.5,4" fill="#ffffff"/>
  <rect opacity="0" fill="#4387FD" width="21" height="21"/>
</g><g transform="translate(0,150)"><polygon points="10.5,11.914 13.5,14.914 14.914,13.5 11.914,10.5 14.914,7.5 13.5,6.086 10.5,9.086 7.5,6.086 6.085,7.5 9.085,10.5 6.085,13.5 7.5,14.914 " id="polygon6" style="opacity:0.5" transform="translate(-2.9561186,-3.5084746)"/>
<rect width="21" height="21" id="rect8" x="0" y="-6" style="opacity:0;fill:#4387fd"/>
</g><g transform="translate(0,61)"><g fill="#000000">
    <polygon points="7.375,3 12.083,10.958 18,10.958 12.957,3 "/>
    <polygon points="6.292,3.688 1.125,11.771 3.5,17 8.782,8.966 "/>
    <polygon points="5.049,17 15.543,17 18.5,12.129 8.006,12.129 "/>
  </g>
</g><g transform="translate(0,349)"><defs>
  </defs>
  <path d="M17.25,6h-6.938l-1.78-1.779C8.396,4.084,8.209,4,8,4H2.75C2.336,4,2,4.336,2,4.75v12.5C2,17.664,2.336,18,2.75,18h14.5 c0.414,0,0.75-0.336,0.75-0.75V6.75C18,6.336,17.664,6,17.25,6z M16,13h-3v3h-1v-3H9v-1h3V9h1v3h3V13z"/>
  <rect opacity="0" fill="#4387FD" width="21" height="21"/>
</g><g transform="translate(0,436)"><defs>
  </defs>
  <polygon points="15,10.5 8.5,17 7,15.5 12,10.5 7,5.5 8.5,4 "/>
  <rect opacity="0" fill="#4387FD" width="21" height="21"/>
</g><g transform="translate(0,394)"><defs>
  </defs>
  <polygon points="15,10.5 8.5,17 7,15.5 12,10.5 7,5.5 8.5,4" fill="#ffffff"/>
  <rect opacity="0" fill="#4387FD" width="21" height="21"/>
</g><g transform="translate(0,481)"><g id="Header">
  <g>
    <rect x="-618" y="-1208" fill="none" width="1400" height="3600"/>
  </g>
</g>
<g id="Label">
</g>
<g id="Icon">
  <g>
    <g>
      <rect fill="none" width="24" height="24"/>
    </g>
    <path d="M16,11c1.7,0,3-1.3,3-3c0-1.7-1.3-3-3-3c-1.7,0-3,1.3-3,3C13,9.7,14.3,11,16,11z M8,11c1.7,0,3-1.3,3-3c0-1.7-1.3-3-3-3       C6.3,5,5,6.3,5,8C5,9.7,6.3,11,8,11z M8,13c-2.3,0-7,1.2-7,3.5V19h14v-2.5C15,14.2,10.3,13,8,13z M16,13c-0.3,0-0.6,0-1,0.1       c1.2,0.8,2,2,2,3.4V19h6v-2.5C23,14.2,18.3,13,16,13z"/>
  </g>
</g>
<g id="Grid" display="none">
  <g display="inline"/>
</g>
</g><g transform="translate(0,601)"><g id="Header">
  <g>
    <rect x="-618" y="-1208" fill="none" width="1400" height="3600"/>
  </g>
</g>
<g id="Label">
</g>
<g id="Icon">
  <g>
    <g>
      <rect fill="none" width="24" height="24"/>
    </g>
    <path d="M16,11c1.7,0,3-1.3,3-3c0-1.7-1.3-3-3-3c-1.7,0-3,1.3-3,3C13,9.7,14.3,11,16,11z M8,11c1.7,0,3-1.3,3-3c0-1.7-1.3-3-3-3       C6.3,5,5,6.3,5,8C5,9.7,6.3,11,8,11z M8,13c-2.3,0-7,1.2-7,3.5V19h14v-2.5C15,14.2,10.3,13,8,13z M16,13c-0.3,0-0.6,0-1,0.1       c1.2,0.8,2,2,2,3.4V19h6v-2.5C23,14.2,18.3,13,16,13z" fill="#ffffff"/>
  </g>
</g>
<g id="Grid" display="none">
  <g display="inline"/>
</g>
</g><g transform="translate(0,165)"><path d="M0 0h24v24H0z" fill="none"/>
    <path d="M12 2C6.48 2 2 6.48 2 12s4.48 10 10 10 10-4.48 10-10S17.52 2 12 2zm1 17h-2v-2h2v2zm2.07-7.75l-.9.92C13.45 12.9 13 13.5 13 15h-2v-.5c0-1.1.45-2.1 1.17-2.83l1.24-1.26c.37-.36.59-.86.59-1.41 0-1.1-.9-2-2-2s-2 .9-2 2H8c0-2.21 1.79-4 4-4s4 1.79 4 4c0 .88-.36 1.68-.93 2.25z"/>
</g><g transform="translate(0,538)"><path d="M0 0h24v24H0z" fill="none"/>
    <path d="M12 2C6.48 2 2 6.48 2 12s4.48 10 10 10 10-4.48 10-10S17.52 2 12 2zm1 17h-2v-2h2v2zm2.07-7.75l-.9.92C13.45 12.9 13 13.5 13 15h-2v-.5c0-1.1.45-2.1 1.17-2.83l1.24-1.26c.37-.36.59-.86.59-1.41 0-1.1-.9-2-2-2s-2 .9-2 2H8c0-2.21 1.79-4 4-4s4 1.79 4 4c0 .88-.36 1.68-.93 2.25z" fill="#ffffff"/>
</g><g transform="translate(0,517)"><defs>
</defs>
<path opacity="0.5" d="M16.5,3h-12C3.672,3,3,3.672,3,4.5v12C3,17.328,3.672,18,4.5,18h12c0.828,0,1.5-0.672,1.5-1.5v-12  C18,3.672,17.328,3,16.5,3z M16,15H5v-1.8l3.5-3.9l2.99,3.332L13.5,10.3l2.5,2.9V15z"/>
<rect opacity="0" fill="#4387FD" width="21" height="21"/>
</g><g transform="translate(0,625)"><path d="M0 0h18v18H0z" fill="none"/>
    <path d="M14.25 14.25H3.75V3.75h5.25V2.25H3.75c-.83 0-1.5 .67-1.5 1.5v10.5c0 .83 .67 1.5 1.5 1.5h10.5c.83 0 1.5-.67 1.5-1.5v-5.25h-1.5v5.25zM10.5 2.25v1.5h2.69l-7.37 7.37 1.06 1.06L14.3 4.81V7.5h1.5V2.25h-5.25z"/>
</g><g transform="translate(0,583)"><path d="M0 0h18v18H0z" fill="none"/>
    <path d="M14.25 14.25H3.75V3.75h5.25V2.25H3.75c-.83 0-1.5 .67-1.5 1.5v10.5c0 .83 .67 1.5 1.5 1.5h10.5c.83 0 1.5-.67 1.5-1.5v-5.25h-1.5v5.25zM10.5 2.25v1.5h2.69l-7.37 7.37 1.06 1.06L14.3 4.81V7.5h1.5V2.25h-5.25z" fill="#ffffff"/>
</g><g transform="translate(0,21)"><path d="M0 0h16v16H0z" fill="none"/>
    <path d="M13.333 7.333H5.222l3.7233-3.7233L8 2.67 2.67 8l5.333 5.333 0.9433-0.9433L5.22 8.667H13.333v-1.333z"/>
</g><g transform="translate(0,309)"><path d="M0 0h16v16H0z" fill="none"/>
    <path d="M8 2.667l-0.943 0.943L10.78 7.333H2.667v1.333h8.113L7.056 12.39 8 13.333l5.333-5.333z"/>
</g><g transform="translate(0,457)"><path fill="none" d="M0 0h24v24H0V0zm0 0h24v24H0z"/>
    <path d="M3 20.01c0 1.1.89 1.99 2 1.99h14c1.1 0 2-.9 2-1.99V18H3v2.01zM18 19c.55 0 1 .45 1 1s-.45 1-1 1-1-.45-1-1 .45-1 1-1zm1-17H5c-1.1 0-2 .9-2 1.99V17h18V3.99C21 2.89 20.11 2 19 2zm-8.62 3h3.24l3.25 5.68h-3.24L10.38 5zm-3.52 6.16l3.11-5.44s1.62 2.85 1.62 2.84L8.49 14l-1.63-2.84zM15.51 14H9.3l1.62-2.84h6.21L15.51 14z"/>
</g><g transform="translate(0,237)"><path fill="none" d="M0 0h24v24H0V0zm0 0h24v24H0z"/>
    <path d="M3 20.01c0 1.1.89 1.99 2 1.99h14c1.1 0 2-.9 2-1.99V18H3v2.01zM18 19c.55 0 1 .45 1 1s-.45 1-1 1-1-.45-1-1 .45-1 1-1zm1-17H5c-1.1 0-2 .9-2 1.99V17h18V3.99C21 2.89 20.11 2 19 2zm-8.62 3h3.24l3.25 5.68h-3.24L10.38 5zm-3.52 6.16l3.11-5.44s1.62 2.85 1.62 2.84L8.49 14l-1.63-2.84zM15.51 14H9.3l1.62-2.84h6.21L15.51 14z" fill="#ffffff"/>
</g><g transform="translate(0,370)"><path d="M0 0h24v24H0z" fill="none"/>
    <path d="M20 6h-8l-2-2H4c-1.1 0-1.99.9-1.99 2L2 18c0 1.1.9 2 2 2h16c1.1 0 2-.9 2-2V8c0-1.1-.9-2-2-2zm-8.5 11l-1.1-2.14 2.84-4.96 1.5 2.66L12.25 17h-.75zm6.8 0h-5.55l1.4-2.5h5.11l.26.46L18.3 17zm-4.55-8h2.39l2.84 5h-2.93l-2.56-4.54.26-.46z"/>
</g><g transform="translate(0,261)"><path d="M0 0h24v24H0z" fill="none"/>
    <path d="M20 6h-8l-2-2H4c-1.1 0-1.99.9-1.99 2L2 18c0 1.1.9 2 2 2h16c1.1 0 2-.9 2-2V8c0-1.1-.9-2-2-2zm-8.5 11l-1.1-2.14 2.84-4.96 1.5 2.66L12.25 17h-.75zm6.8 0h-5.55l1.4-2.5h5.11l.26.46L18.3 17zm-4.55-8h2.39l2.84 5h-2.93l-2.56-4.54.26-.46z" fill="#ffffff"/>
</g><g transform="translate(0,505)"><g>
  <path fill="none" d="M0,0h12v12H0V0z"/>
  <path d="M10,10H2V2h4V1H2C1.445,1,1,1.45,1,2v8c0,0.55,0.445,1,1,1h8c0.55,0,1-0.45,1-1V6h-1V10z"/>
  <polygon points="7,1 7,2 9.295,2 3.147,8.146 3.853,8.854 10,2.705 10,5 11,5 11,1  "/>
</g>
</g><g transform="translate(0,415)"><path d="m 6,6 0,9 c 0,2.209 1.791,4 4,4 2.209,0 4,-1.791 4,-4 l 0,-8 -0.945,0 0,8.1 c 0,1.688 -1.367,3 -3.055,3 -1.688,0 -3.055,-1.312 -3.055,-3 l 0,-9.1 c 0,-1.135 0.92,-2.1 2.055,-2.1 1.135,0 2.055,0.965 2.055,2.1 l 0,7.1 c 0,0.583 -0.473,0.955 -1.055,0.955 -0.582,0 -1.055,-0.372 -1.055,-0.955 L 8.945,7 8,7 8,13 c 0,1.104 0.895,1.9 2,1.9 1.104,0 2,-0.796 2,-1.9 L 12,6 C 12,4.344 10.656,3 9,3 7.344,3 6,4.344 6,6 z" id="path6"/>
<rect opacity="0" fill="#4387FD" width="21" height="21" id="rect8"/>
</g><g transform="translate(0,37)"><path d="M19 13h-6v6h-2v-6H5v-2h6V5h2v6h6v2z"/>
    <path d="M0 0h24v24H0z" fill="none"/>
</g><g transform="translate(0,213)"><path d="M19 13h-6v6h-2v-6H5v-2h6V5h2v6h6v2z" fill="#ffffff"/>
    <path d="M0 0h24v24H0z" fill="none"/>
</g><g transform="translate(0,0)"><defs>
</defs>
<path d="M16.742,15.502L14,12.758h-0.643l-0.551-0.551C13.54,11.338,14,10.229,14,9c0-2.761-2.238-5-5-5S4,6.239,4,9  c0,2.762,2.238,5,5,5c1.229,0,2.338-0.459,3.208-1.193l0.552,0.55V14l2.742,2.742c0.342,0.344,0.896,0.344,1.24,0.002  C17.086,16.4,17.086,15.846,16.742,15.502z M9,12.25c-1.795,0-3.25-1.455-3.25-3.25S7.205,5.75,9,5.75c1.797,0,3.25,1.455,3.25,3.25  S10.797,12.25,9,12.25z"/>
<rect opacity="0" fill="#4387FD" width="21" height="21"/>
</g><g transform="translate(0,325)"><polygon fill="#000000" points="9,5 12,1.5 15,5 " id="polygon3" style="filter:url(#filter3022)"/>
<polygon fill="#000000" points="15,19 12,22.5 9,19 " id="polygon5" style="filter:url(#filter3016)"/>
<rect fill="none" width="24" height="24" id="rect7"/>
<rect x="2" y="2" fill="none" width="20" height="20" id="rect9" style="filter:url(#filter3010)"/>
<g id="g11" style="filter:url(#filter3004)">
<path fill="#000000" d="M10.216,14.844h-3.51L6.026,17H4L7.441,7h2.053l3.428,10h-2.026L10.216,14.844z M7.201,13.271h2.52   L8.484,9.342H8.443L7.201,13.271z" id="path13"/>
<path fill="#000000" d="M15.875,15.455h4.891V17h-7.314v-1.049l4.752-7.406h-4.746V7h7.191v1.003L15.875,15.455z" id="path15"/>
</g>
</g><g transform="translate(0,81)"><path d="M0 0h24v24H0z" fill="none"/>
    <path d="M12 17.27L18.18 21l-1.64-7.03L22 9.24l-7.19-.61L12 2 9.19 8.63 2 9.24l5.46 4.73L5.82 21z"/>
    <path d="M0 0h24v24H0z" fill="none"/>
</g><g transform="translate(0,285)"><path d="M0 0h24v24H0z" fill="none"/>
    <path d="M12 17.27L18.18 21l-1.64-7.03L22 9.24l-7.19-.61L12 2 9.19 8.63 2 9.24l5.46 4.73L5.82 21z" fill="#ffffff"/>
    <path d="M0 0h24v24H0z" fill="none"/>
</g><g transform="translate(0,105)"><path d="M19 2H5c-1.1 0-2 .9-2 1.99V17h18V3.99C21 2.89 20.11 2 19 2zm-4.38 4c.97 0 1.75.79 1.75 1.75S15.6 9.5 14.62 9.5c-.96 0-1.75-.79-1.75-1.75S13.65 6 14.62 6zM9.38 6c.97 0 1.75.79 1.75 1.75S10.35 9.5 9.38 9.5c-.96 0-1.75-.79-1.75-1.75S8.41 6 9.38 6zm4.37 7H5v-.26c0-1.46 2.91-2.19 4.38-2.19s4.38.73 4.38 2.19V13zM19 13h-3.94v-.26c0-.91-.48-1.61-1.17-2.14.26-.03.52-.05.73-.05 1.46 0 4.38.73 4.38 2.19V13zM3 20.01c0 1.1.89 1.99 2 1.99h14c1.1 0 2-.9 2-1.99V18H3v2.01zM18 19c.55 0 1 .45 1 1s-.45 1-1 1-1-.45-1-1 .45-1 1-1z"/>
    <path fill="none" d="M0 0h24v24H0z"/>
</g><g transform="translate(0,189)"><path d="M19 2H5c-1.1 0-2 .9-2 1.99V17h18V3.99C21 2.89 20.11 2 19 2zm-4.38 4c.97 0 1.75.79 1.75 1.75S15.6 9.5 14.62 9.5c-.96 0-1.75-.79-1.75-1.75S13.65 6 14.62 6zM9.38 6c.97 0 1.75.79 1.75 1.75S10.35 9.5 9.38 9.5c-.96 0-1.75-.79-1.75-1.75S8.41 6 9.38 6zm4.37 7H5v-.26c0-1.46 2.91-2.19 4.38-2.19s4.38.73 4.38 2.19V13zM19 13h-3.94v-.26c0-.91-.48-1.61-1.17-2.14.26-.03.52-.05.73-.05 1.46 0 4.38.73 4.38 2.19V13zM3 20.01c0 1.1.89 1.99 2 1.99h14c1.1 0 2-.9 2-1.99V18H3v2.01zM18 19c.55 0 1 .45 1 1s-.45 1-1 1-1-.45-1-1 .45-1 1-1z" fill="#ffffff"/>
    <path fill="none" d="M0 0h24v24H0z"/>
</g></svg>